<svg version="1.1" xmlns="http://www.w3.org/2000/svg" xmlns:xlink="http://www.w3.org/1999/xlink">
  <symbol id="logo-header" viewBox="0 0 252 50">
    <path d="M66.7369 15.3047V30.7903H63.1191V18.2271H56.0342V30.7903H52.4164V15.3047H66.7369Z" fill="#DC7E51"/>
    <path d="M72.6159 30.1581C71.6289 29.6557 70.8001 28.8903 70.2213 27.9465C69.6425 27.0027 69.3361 25.9173 69.3361 24.8104C69.3361 23.7035 69.6425 22.6181 70.2213 21.6743C70.8001 20.7306 71.6289 19.9651 72.6159 19.4627C73.6814 18.9424 74.8518 18.6719 76.0378 18.6719C77.2237 18.6719 78.3941 18.9424 79.4596 19.4627C80.4406 19.9665 81.2637 20.7307 81.8384 21.6715C82.4131 22.6123 82.7172 23.6931 82.7172 24.7953C82.7172 25.8975 82.4131 26.9784 81.8384 27.9192C81.2637 28.86 80.4406 29.6242 79.4596 30.128C78.3985 30.6603 77.2286 30.9401 76.0413 30.9453C74.854 30.9505 73.6816 30.6811 72.6159 30.1581ZM78.2537 27.2357C78.8094 26.561 79.1132 25.7143 79.1132 24.8405C79.1132 23.9667 78.8094 23.1201 78.2537 22.4454C77.9712 22.1484 77.6291 21.9144 77.2498 21.7586C76.8706 21.6029 76.4627 21.5289 76.0528 21.5415C75.6385 21.5288 75.2261 21.6026 74.8419 21.7582C74.4577 21.9138 74.1103 22.1479 73.8218 22.4454C73.2528 23.1139 72.9403 23.9629 72.9403 24.8405C72.9403 25.7182 73.2528 26.5672 73.8218 27.2357C74.1086 27.5355 74.4557 27.771 74.8403 27.9268C75.2249 28.0826 75.6381 28.1551 76.0528 28.1395C76.8764 28.137 77.6663 27.8126 78.2537 27.2357Z" fill="#DC7E51"/>
    <path d="M95.0766 20.3966C95.922 20.8449 96.6225 21.5241 97.0966 22.3549C97.5754 23.2544 97.824 24.2584 97.8201 25.2773C97.8441 26.343 97.5502 27.3918 96.976 28.2901C96.3969 29.1772 95.5828 29.8864 94.6244 30.3388C93.5581 30.834 92.3933 31.0812 91.2176 31.0618C89.1072 31.0618 87.449 30.399 86.2431 29.0734C85.0371 27.7478 84.4341 25.7895 84.4341 23.1985C84.4341 20.8184 84.9768 18.8902 86.0019 17.4742C87.0269 16.0582 88.6851 15.1243 90.8558 14.6723L96.6142 13.5576L97.0966 16.5101L92.0316 17.5044C90.6448 17.7755 89.6197 18.1973 88.9564 18.83C88.2604 19.533 87.8427 20.4641 87.7806 21.4511C88.3147 20.8895 88.9621 20.4479 89.68 20.1556C90.4485 19.8553 91.2667 19.702 92.0919 19.7037C93.1295 19.678 94.1566 19.9165 95.0766 20.3966ZM93.3883 27.5068C93.9356 26.9074 94.2276 26.1185 94.2023 25.3074C94.2145 24.9149 94.1489 24.5237 94.0092 24.1566C93.8695 23.7895 93.6585 23.4536 93.3883 23.1684C93.1008 22.8942 92.7593 22.6829 92.3856 22.548C92.0118 22.4131 91.614 22.3576 91.2176 22.385C90.4097 22.3489 89.6198 22.6301 89.0167 23.1684C88.7367 23.448 88.5173 23.7822 88.372 24.1502C88.2268 24.5182 88.1589 24.9121 88.1726 25.3074C88.1398 26.0777 88.4129 26.8297 88.9324 27.3996C89.4519 27.9696 90.1757 28.3113 90.9462 28.3503H91.1874C91.5927 28.3696 91.9976 28.3046 92.3765 28.1594C92.7553 28.0142 93.0999 27.792 93.3883 27.5068Z" fill="#DC7E51"/>
    <path d="M107.89 27.8984C108.396 27.7015 108.858 27.4043 109.246 27.0247L111.116 29.0132C109.97 30.2785 108.312 30.9413 106.141 30.9413C104.89 30.9697 103.65 30.7013 102.523 30.158C101.529 29.6794 100.692 28.9268 100.111 27.9888C99.5354 27.0357 99.2427 25.9385 99.2673 24.8254C99.2389 23.7213 99.5322 22.6328 100.111 21.6921C100.665 20.757 101.469 19.9952 102.433 19.4928C103.453 18.9514 104.595 18.6816 105.749 18.7095C106.836 18.7052 107.909 18.9527 108.885 19.4325C109.818 19.9 110.602 20.6203 111.146 21.5114C111.726 22.4848 112.019 23.6024 111.99 24.735L103.036 26.4523C103.276 27.018 103.701 27.4854 104.242 27.7779C104.873 28.0766 105.563 28.231 106.262 28.2298C106.818 28.204 107.367 28.0922 107.89 27.8984ZM103.518 22.144C102.937 22.7752 102.624 23.6067 102.644 24.4639L108.523 23.3491C108.371 22.7494 108.007 22.2249 107.498 21.8729C106.961 21.4913 106.317 21.2908 105.659 21.3005C105.263 21.2868 104.869 21.3547 104.501 21.4998C104.132 21.6449 103.798 21.8642 103.518 22.144Z" fill="#DC7E51"/>
    <path d="M126.702 18.8903V28.8023C126.702 30.9715 126.13 32.5984 124.984 33.6529C123.838 34.7074 122.15 35.2497 119.949 35.2195C118.831 35.2147 117.717 35.0731 116.633 34.7977C115.693 34.5837 114.809 34.173 114.04 33.5926L115.427 31.1222C116.003 31.5704 116.657 31.9076 117.356 32.1164C118.117 32.3584 118.91 32.4804 119.708 32.4779C120.914 32.4779 121.818 32.2067 122.391 31.6644C122.964 31.1221 123.266 30.3087 123.266 29.2241V28.7119C122.361 29.7062 121.095 30.1882 119.437 30.1882C118.379 30.1923 117.335 29.9444 116.392 29.4651C115.484 29.0099 114.722 28.3109 114.191 27.4466C113.396 26.1719 113.14 24.6341 113.479 23.171C113.819 21.7078 114.725 20.4391 116 19.6435C116.12 19.5556 116.252 19.4846 116.392 19.4326C117.335 18.9533 118.379 18.7054 119.437 18.7095C121.185 18.7095 122.512 19.2819 123.446 20.4268V18.9204H126.702V18.8903ZM122.331 26.5729C122.609 26.3003 122.83 25.9755 122.982 25.6173C123.134 25.259 123.213 24.8743 123.216 24.4852C123.219 24.0962 123.145 23.7104 122.998 23.35C122.851 22.9896 122.635 22.6617 122.361 22.3851L122.331 22.355C121.684 21.8263 120.875 21.5375 120.04 21.5375C119.204 21.5375 118.395 21.8263 117.748 22.355C117.47 22.6194 117.247 22.9363 117.092 23.2872C116.937 23.6382 116.852 24.0163 116.844 24.3999C116.836 24.7835 116.903 25.165 117.043 25.5224C117.183 25.8798 117.392 26.2061 117.658 26.4825L117.748 26.5729C118.395 27.1015 119.204 27.3904 120.04 27.3904C120.875 27.3904 121.684 27.1015 122.331 26.5729Z" fill="#DC7E51"/>
    <path d="M142.259 18.8903V30.7908H138.913V29.4049C138.038 30.4292 136.772 30.9414 135.144 30.9414C134.07 30.9686 133.009 30.7085 132.069 30.1882C131.151 29.7029 130.397 28.9591 129.898 28.0491C129.378 27.054 129.107 25.9481 129.107 24.8255C129.107 23.7029 129.378 22.5969 129.898 21.6018C130.405 20.6983 131.158 19.9567 132.069 19.4627C133.017 18.9634 134.073 18.7047 135.144 18.7095C136.682 18.7095 137.888 19.1916 138.762 20.1557V18.8903H142.259ZM137.948 27.2357C138.517 26.5672 138.829 25.7182 138.829 24.8405C138.829 23.9629 138.517 23.1139 137.948 22.4454C137.665 22.1484 137.323 21.9144 136.944 21.7586C136.565 21.6029 136.157 21.5289 135.747 21.5415C135.333 21.5288 134.92 21.6026 134.536 21.7582C134.152 21.9138 133.805 22.1479 133.516 22.4454C132.947 23.1139 132.635 23.9629 132.635 24.8405C132.635 25.7182 132.947 26.5672 133.516 27.2357C133.803 27.5355 134.15 27.771 134.534 27.9268C134.919 28.0826 135.332 28.1551 135.747 28.1395C136.571 28.137 137.361 27.8126 137.948 27.2357Z" fill="#DC7E51"/>
    <path d="M163.846 18.8901V30.7906H160.499V29.3746C160.04 29.8842 159.474 30.2856 158.841 30.5496C158.18 30.8153 157.473 30.9484 156.761 30.9412C155.153 30.9412 153.886 30.4893 152.962 29.5855C152.027 28.6817 151.545 27.356 151.545 25.5785V18.8901H155.042V25.0965C155.042 27.0246 155.856 27.9586 157.484 27.9586C157.863 27.9705 158.241 27.9045 158.594 27.7645C158.946 27.6246 159.267 27.4138 159.534 27.1451C160.047 26.6028 160.288 25.8195 160.288 24.7349V18.8901H163.846Z" fill="#DC7E51"/>
    <path d="M188.085 24.5238H185.794V30.7602H182.236V24.5238H179.885L176.357 30.7602H172.167L176.9 22.686L172.468 15.3047H176.297L179.824 21.5713H182.236V15.3047H185.794V21.5713H188.145L191.673 15.3047H195.502L191.1 22.686L195.803 30.7903H191.612L188.085 24.5238Z" fill="#DC7E51"/>
    <path d="M209.068 18.8901V30.7906H205.722V29.3746C205.263 29.8842 204.697 30.2856 204.064 30.5496C203.403 30.8153 202.696 30.9484 201.984 30.9412C200.386 30.9412 199.15 30.4893 198.215 29.5855C197.28 28.6817 196.798 27.356 196.798 25.5785V18.8901H200.295V25.0965C200.295 27.0246 201.109 27.9586 202.737 27.9586C203.116 27.9705 203.494 27.9045 203.847 27.7645C204.199 27.6246 204.52 27.4138 204.787 27.1451C205.3 26.6028 205.541 25.8195 205.541 24.7349V18.8901H209.068Z" fill="#DC7E51"/>
    <path d="M221.821 25.6085C222.212 26.0601 222.427 26.6381 222.424 27.2354C222.425 27.9736 222.145 28.6845 221.64 29.2238C221.034 29.8336 220.289 30.2883 219.47 30.5495C218.469 30.8803 217.418 31.0332 216.364 31.0014C215.433 31.0023 214.504 30.9115 213.591 30.7302C212.714 30.5436 211.863 30.2502 211.058 29.8565L211.993 27.4463C213.315 28.0586 214.757 28.3675 216.214 28.3501C216.886 28.3795 217.556 28.2559 218.173 27.9886C218.377 27.9057 218.552 27.764 218.676 27.5817C218.799 27.3993 218.866 27.1844 218.867 26.9643C218.869 26.7894 218.825 26.617 218.741 26.4639C218.656 26.3108 218.533 26.1822 218.384 26.0906C217.935 25.8702 217.437 25.7666 216.937 25.7893H214.465V23.6502H216.636C217.123 23.6803 217.611 23.587 218.053 23.3791C218.203 23.2967 218.328 23.1743 218.413 23.0254C218.498 22.8765 218.541 22.7069 218.535 22.5355C218.54 22.3449 218.484 22.1578 218.375 22.0009C218.267 21.844 218.112 21.7253 217.932 21.6618C217.38 21.4285 216.782 21.3254 216.183 21.3605C214.867 21.3863 213.568 21.6624 212.355 22.174L211.51 19.7939C213.048 19.1043 214.71 18.7353 216.395 18.7093C217.383 18.702 218.367 18.8339 219.319 19.1009C220.078 19.3058 220.773 19.6997 221.339 20.2458C221.576 20.4778 221.764 20.7543 221.893 21.0593C222.023 21.3644 222.09 21.692 222.093 22.0233C222.094 22.5683 221.913 23.0982 221.58 23.5297C221.207 24.005 220.72 24.3782 220.163 24.6143C220.806 24.7648 221.386 25.1124 221.821 25.6085Z" fill="#DC7E51"/>
    <path d="M224.957 18.8901H228.454V23.5298H233.7V18.8901H237.197V30.7906H233.7V26.3317H228.454V30.7906H224.957V18.8901Z" fill="#DC7E51"/>
    <path d="M241.749 29.8568C240.785 29.0132 240.272 27.778 240.272 26.1511V18.9204H243.739V22.9274C244.18 22.6313 244.67 22.4169 245.186 22.2947C245.837 22.1354 246.506 22.0644 247.176 22.0838C248.684 22.0838 249.859 22.4454 250.734 23.1986C251.608 23.9517 252.03 25.0062 252 26.4222C252 27.9286 251.457 29.1036 250.402 29.917C249.347 30.7305 247.9 31.1221 246.061 31.1221C244.222 31.1221 242.744 30.6702 241.749 29.8568ZM247.84 28.0792C248.053 27.8688 248.218 27.614 248.322 27.3328C248.426 27.0517 248.467 26.7511 248.442 26.4523C248.457 26.1681 248.411 25.8839 248.307 25.6189C248.203 25.3539 248.044 25.1142 247.84 24.9158C247.37 24.5198 246.763 24.3249 246.151 24.3735C245.653 24.3687 245.159 24.4715 244.704 24.6748C244.313 24.8508 243.979 25.1325 243.739 25.4883V26.4523C243.721 26.7505 243.766 27.0491 243.87 27.3291C243.973 27.6092 244.134 27.8647 244.342 28.0792C244.839 28.4742 245.456 28.6892 246.091 28.6892C246.726 28.6892 247.342 28.4742 247.84 28.0792Z" fill="#DC7E51"/>
    <path d="M53.1399 43.8059C52.6568 43.5101 52.2695 43.0811 52.0244 42.5707C51.7566 42.0217 51.6174 41.4189 51.6174 40.8082C51.6174 40.1974 51.7566 39.5947 52.0244 39.0457C52.2695 38.5352 52.6568 38.1063 53.1399 37.8105C53.5646 37.5592 54.0427 37.4118 54.5352 37.3804C55.0277 37.349 55.5207 37.4344 55.9739 37.6297C56.3441 37.798 56.6733 38.0447 56.9386 38.3528L56.5467 38.8047C56.3345 38.5493 56.0666 38.3459 55.7634 38.2101C55.4603 38.0743 55.1301 38.0097 54.7981 38.0214C54.3498 38.016 53.9096 38.1417 53.5318 38.3829C53.1485 38.6295 52.8366 38.9723 52.6274 39.3771C52.418 39.8199 52.3094 40.3034 52.3094 40.7931C52.3094 41.2828 52.418 41.7664 52.6274 42.2091C52.8285 42.6195 53.1421 42.9643 53.5318 43.2033C53.9113 43.4408 54.3503 43.5662 54.7981 43.5649C55.1337 43.581 55.4682 43.5153 55.7728 43.3736C56.0774 43.2319 56.343 43.0184 56.5467 42.7514L56.9386 43.2033C56.6943 43.533 56.359 43.7843 55.9739 43.9264C55.5312 44.1522 55.0376 44.2598 54.541 44.2387C54.0445 44.2175 53.5618 44.0685 53.1399 43.8059Z" fill="black"/>
    <path d="M58.9887 43.9264C58.6341 43.6987 58.3518 43.3747 58.1747 42.9924C57.9812 42.5773 57.8809 42.1248 57.8809 41.6668C57.8809 41.2088 57.9812 40.7564 58.1747 40.3412C58.3623 39.9739 58.6429 39.6623 58.9887 39.4374C59.2499 39.2747 59.5424 39.1688 59.8472 39.1264C60.152 39.084 60.4623 39.1062 60.7579 39.1914C61.0536 39.2766 61.328 39.423 61.5634 39.6211C61.7988 39.8192 61.9898 40.0645 62.1242 40.3412C62.3177 40.7564 62.418 41.2088 62.418 41.6668C62.418 42.1248 62.3177 42.5773 62.1242 42.9924C61.9389 43.3693 61.6583 43.6913 61.3102 43.9264C60.9585 44.1336 60.5577 44.2429 60.1495 44.2429C59.7412 44.2429 59.3404 44.1336 58.9887 43.9264ZM61.0087 43.4142C61.271 43.2446 61.48 43.0044 61.6117 42.7213C61.883 42.0653 61.883 41.3286 61.6117 40.6726C61.48 40.3895 61.271 40.1493 61.0087 39.9797C60.7516 39.8171 60.4537 39.7308 60.1495 39.7308C59.8453 39.7308 59.5473 39.8171 59.2902 39.9797C59.0279 40.1493 58.8189 40.3895 58.6873 40.6726C58.5383 40.9936 58.4611 41.3431 58.4611 41.6969C58.4611 42.0508 58.5383 42.4003 58.6873 42.7213C58.8189 43.0044 59.0279 43.2446 59.2902 43.4142C59.5523 43.5623 59.8483 43.6402 60.1495 43.6402C60.4506 43.6402 60.7466 43.5623 61.0087 43.4142Z" fill="black"/>
    <path d="M67.9127 42.8419C67.9206 43.0329 67.887 43.2235 67.8142 43.4003C67.7413 43.5772 67.6309 43.7361 67.4906 43.8662C67.1141 44.1345 66.6554 44.2624 66.1942 44.2277H64.1441V39.1663H66.1038C66.5314 39.1399 66.9557 39.2565 67.3097 39.4977C67.4541 39.6112 67.5682 39.7586 67.6418 39.9268C67.7154 40.095 67.7463 40.2788 67.7318 40.4618C67.7365 40.7186 67.6629 40.9708 67.5208 41.1848C67.3882 41.391 67.1843 41.5411 66.9479 41.6066C67.2394 41.6435 67.5044 41.7941 67.6851 42.0255C67.8659 42.2569 67.9477 42.5504 67.9127 42.8419ZM64.7471 41.3957H66.1038C66.3816 41.4181 66.6586 41.3435 66.8877 41.1848C66.9734 41.1032 67.0417 41.0051 67.0883 40.8963C67.1349 40.7876 67.159 40.6705 67.159 40.5521C67.159 40.4338 67.1349 40.3167 67.0883 40.208C67.0417 40.0992 66.9734 40.0011 66.8877 39.9195C66.6576 39.763 66.3814 39.6887 66.1038 39.7086H64.7471V41.3957ZM67.0384 43.4444C67.144 43.3716 67.2278 43.2714 67.2809 43.1547C67.334 43.038 67.3544 42.909 67.3399 42.7816C67.3502 42.6576 67.3309 42.5329 67.2838 42.4177C67.2366 42.3025 67.1629 42.2001 67.0686 42.1188C66.8178 41.9582 66.5213 41.8841 66.2244 41.9079H64.7471V43.6553H66.1641C66.4713 43.6902 66.781 43.6155 67.0384 43.4444Z" fill="black"/>
    <path d="M72.9777 39.4372C73.3223 39.6549 73.595 39.9693 73.7615 40.3411C73.9406 40.7654 74.0329 41.2212 74.0329 41.6817C74.0329 42.1423 73.9406 42.5981 73.7615 43.0224C73.5852 43.3879 73.3147 43.6999 72.9777 43.9263C72.6356 44.1445 72.2379 44.2596 71.832 44.2577C71.4817 44.2609 71.1373 44.167 70.8371 43.9865C70.5394 43.8096 70.2906 43.561 70.1136 43.2634V46.0653H69.5106V41.6968C69.5103 41.2314 69.6025 40.7706 69.7819 40.3411C69.9524 39.9666 70.2288 39.6501 70.577 39.4307C70.9252 39.2112 71.33 39.0983 71.7416 39.1058C72.1763 39.1006 72.604 39.2153 72.9777 39.4372ZM72.6461 43.4141C72.9084 43.2445 73.1174 43.0043 73.249 42.7212C73.5204 42.0652 73.5204 41.3284 73.249 40.6725C73.1269 40.3754 72.9165 40.123 72.6461 39.9494C72.3889 39.7872 72.0909 39.7011 71.7868 39.7011C71.4827 39.7011 71.1848 39.7872 70.9276 39.9494C70.6813 40.1285 70.4843 40.3668 70.3548 40.6423C70.2156 40.9659 70.1438 41.3145 70.1438 41.6667C70.1438 42.0189 70.2156 42.3674 70.3548 42.691C70.4764 42.9714 70.675 43.2117 70.9276 43.384C71.1791 43.5579 71.4764 43.6536 71.7823 43.6589C72.0881 43.6643 72.3886 43.5791 72.6461 43.4141Z" fill="black"/>
    <path d="M78.4647 43.4744C78.7024 43.3658 78.9095 43.2002 79.0677 42.9923L79.3993 43.4442C79.2054 43.7077 78.9455 43.9156 78.6456 44.0468C78.3448 44.1912 78.0145 44.2634 77.6809 44.2577C77.2477 44.251 76.823 44.1372 76.4448 43.9263C76.0822 43.6991 75.79 43.3758 75.6006 42.9923C75.3979 42.58 75.2946 42.126 75.2991 41.6667C75.2988 41.211 75.3911 40.76 75.5705 40.3411C75.7468 39.9755 76.0173 39.6636 76.3543 39.4372C76.6964 39.219 77.0941 39.1039 77.5 39.1058C77.8834 39.0985 78.2606 39.2032 78.5853 39.4071C78.9199 39.6147 79.1829 39.9195 79.339 40.2808C79.5272 40.6661 79.63 41.0874 79.6405 41.5161L75.9624 42.3295C76.0447 42.707 76.2544 43.0448 76.5563 43.2861C76.8582 43.5275 77.2339 43.6578 77.6206 43.6551C77.9123 43.6628 78.2017 43.6008 78.4647 43.4744ZM76.686 39.9494C76.4334 40.1217 76.2348 40.3619 76.1131 40.6423C75.9686 40.9536 75.8964 41.2935 75.9021 41.6366V41.8475L79.0677 41.1545C79.0036 40.7605 78.8254 40.3939 78.5552 40.1C78.4208 39.9653 78.261 39.8587 78.085 39.7862C77.9091 39.7138 77.7204 39.6771 77.5301 39.6783C77.2269 39.6756 76.9309 39.7707 76.686 39.9494Z" fill="black"/>
    <path d="M86.3335 39.1357V44.1972H85.7908V40.1902L83.9819 43.5645H83.7106L81.9017 40.1601V44.1972H81.359V39.1357H81.962L83.8613 42.7812L85.7908 39.1357H86.3335Z" fill="black"/>
    <path d="M91.1573 43.4744C91.395 43.3658 91.6021 43.2002 91.7603 42.9923L92.0919 43.4442C91.898 43.7077 91.638 43.9156 91.3382 44.0468C91.0374 44.1912 90.7071 44.2634 90.3734 44.2577C89.9403 44.251 89.5156 44.1372 89.1373 43.9263C88.7748 43.6991 88.4825 43.3758 88.2932 42.9923C88.0904 42.58 87.9872 42.126 87.9917 41.6667C87.9914 41.211 88.0837 40.76 88.263 40.3411C88.4393 39.9755 88.7099 39.6636 89.0469 39.4372C89.3889 39.219 89.7867 39.1039 90.1925 39.1058C90.576 39.0985 90.9532 39.2032 91.2779 39.4071C91.6043 39.6109 91.8658 39.9036 92.0316 40.2507C92.2198 40.636 92.3226 41.0573 92.3331 41.4859L88.655 42.2994C88.7372 42.6769 88.9469 43.0146 89.2488 43.256C89.5507 43.4973 89.9265 43.6276 90.3131 43.625C90.6025 43.642 90.8917 43.5903 91.1573 43.4744ZM89.4087 39.9494C89.1561 40.1217 88.9575 40.3619 88.8358 40.6423C88.6913 40.9536 88.6191 41.2935 88.6248 41.6366V41.8475L91.7904 41.1545C91.7263 40.7605 91.5482 40.3939 91.2779 40.1C91.1435 39.9653 90.9837 39.8587 90.8078 39.7862C90.6318 39.7138 90.4431 39.6771 90.2528 39.6783C89.9496 39.6756 89.6536 39.7707 89.4087 39.9494Z" fill="black"/>
    <path d="M94.0515 39.1357H94.6545V41.3652H97.4583V39.1357H98.0613V44.1972H97.4583V41.9678H94.6545V44.1972H94.0515V39.1357Z" fill="black"/>
    <path d="M100.232 39.1357H100.835V41.3652H103.639V39.1357H104.242V44.1972H103.639V41.9678H100.835V44.1972H100.232V39.1357Z" fill="black"/>
    <path d="M106.774 43.8055C106.602 43.6087 106.47 43.3794 106.387 43.1311C106.304 42.8827 106.272 42.6204 106.292 42.3594V39.1659H106.895V41.2748C107.034 41.0687 107.235 40.9108 107.468 40.8229C107.733 40.7026 108.021 40.641 108.312 40.6421C108.545 40.6275 108.779 40.6629 108.997 40.7461C109.216 40.8292 109.414 40.9582 109.578 41.1242C109.738 41.2975 109.861 41.5019 109.939 41.7248C110.017 41.9477 110.048 42.1843 110.03 42.4197C110.039 42.763 109.967 43.1037 109.819 43.4139C109.667 43.6921 109.45 43.9297 109.186 44.1068C108.893 44.2743 108.559 44.3577 108.221 44.3478C107.956 44.3576 107.692 44.3147 107.443 44.2216C107.195 44.1286 106.968 43.9871 106.774 43.8055ZM109.096 43.3838C109.312 43.0973 109.428 42.7482 109.427 42.3895C109.439 42.2194 109.416 42.0487 109.359 41.888C109.302 41.7272 109.212 41.58 109.096 41.4556C108.868 41.2515 108.581 41.1266 108.277 41.0994C107.972 41.0723 107.667 41.1444 107.407 41.3049C107.199 41.4503 107.033 41.6476 106.925 41.8774V42.3594C106.91 42.5436 106.932 42.7288 106.989 42.9046C107.046 43.0804 107.137 43.2432 107.257 43.3838C107.378 43.5147 107.529 43.6156 107.696 43.6783C107.864 43.7411 108.044 43.764 108.221 43.7453C108.386 43.7716 108.555 43.7517 108.71 43.6879C108.864 43.6241 108.998 43.5188 109.096 43.3838ZM110.754 39.1357H111.357V44.1972H110.754V39.1357Z" fill="black"/>
    <path d="M116.181 43.4745C116.418 43.3659 116.625 43.2003 116.784 42.9925L117.115 43.4444C116.921 43.7079 116.661 43.9157 116.361 44.0469C116.061 44.1913 115.73 44.2635 115.397 44.2578C114.973 44.2657 114.556 44.1539 114.194 43.9354C113.831 43.7169 113.537 43.4005 113.347 43.0226C113.144 42.6103 113.041 42.1563 113.045 41.697C113.045 41.2413 113.137 40.7903 113.316 40.3713C113.493 40.0058 113.763 39.6938 114.1 39.4675C114.442 39.2493 114.84 39.1342 115.246 39.1361C115.629 39.1287 116.007 39.2335 116.331 39.4374C116.658 39.6412 116.919 39.9338 117.085 40.281C117.273 40.6663 117.376 41.0876 117.387 41.5162L113.708 42.3296C113.791 42.7072 114 43.0449 114.302 43.2863C114.604 43.5276 114.98 43.6579 115.367 43.6553C115.648 43.6592 115.927 43.5973 116.181 43.4745ZM114.432 39.9496C114.179 40.1218 113.981 40.3621 113.859 40.6425C113.715 40.9537 113.642 41.2936 113.648 41.6367V41.8476L116.814 41.1547C116.75 40.7607 116.571 40.3941 116.301 40.1002C116.167 39.9655 116.007 39.8588 115.831 39.7864C115.655 39.714 115.466 39.6773 115.276 39.6784C114.972 39.671 114.675 39.7666 114.432 39.9496Z" fill="black"/>
    <path d="M125.738 39.1357V44.1972H125.135V39.7383H122.331V44.1972H121.728V39.1357H125.738Z" fill="black"/>
    <path d="M131.948 39.1361V44.1976H131.376V43.2034C131.219 43.5312 130.966 43.8042 130.652 43.9867C130.35 44.1634 130.007 44.2569 129.657 44.2578C129.252 44.2548 128.855 44.1402 128.511 43.9264C128.167 43.7088 127.894 43.3944 127.728 43.0226C127.534 42.6021 127.434 42.1448 127.434 41.6819C127.434 41.219 127.534 40.7617 127.728 40.3412C127.904 39.9757 128.174 39.6637 128.511 39.4374C128.853 39.2191 129.251 39.1041 129.657 39.106C130.007 39.1069 130.35 39.2004 130.652 39.3771C130.951 39.5654 131.199 39.824 131.376 40.1303V39.1662L131.948 39.1361ZM130.561 43.4142C130.824 43.2446 131.033 43.0044 131.164 42.7213C131.313 42.4003 131.391 42.0508 131.391 41.697C131.391 41.3431 131.313 40.9936 131.164 40.6726C131.033 40.3895 130.824 40.1493 130.561 39.9797C130.308 39.8222 130.016 39.7387 129.717 39.7387C129.419 39.7387 129.127 39.8222 128.873 39.9797C128.611 40.1493 128.402 40.3895 128.27 40.6726C128.121 40.9936 128.044 41.3431 128.044 41.697C128.044 42.0508 128.121 42.4003 128.27 42.7213C128.402 43.0044 128.611 43.2446 128.873 43.4142C129.121 43.584 129.417 43.6686 129.717 43.6553C130.015 43.6499 130.306 43.5668 130.561 43.4142Z" fill="black"/>
    <path d="M134.089 39.1357H134.692V41.3652H137.496V39.1357H138.099V44.1972H137.496V41.9678H134.692V44.1972H134.089V39.1357Z" fill="black"/>
    <path d="M140.933 43.9265C140.578 43.6987 140.296 43.3748 140.119 42.9925C139.925 42.5773 139.825 42.1249 139.825 41.6669C139.825 41.2089 139.925 40.7564 140.119 40.3413C140.306 39.974 140.587 39.6623 140.933 39.4374C141.288 39.2234 141.694 39.1089 142.108 39.106C142.468 39.1029 142.822 39.1965 143.133 39.3772C143.446 39.5487 143.698 39.8115 143.857 40.1304L143.405 40.4618C143.27 40.2223 143.072 40.0244 142.832 39.8894C142.6 39.7663 142.341 39.7041 142.078 39.7086C141.771 39.7134 141.47 39.7964 141.204 39.9496C140.942 40.1192 140.733 40.3594 140.601 40.6425C140.452 40.9688 140.375 41.3233 140.375 41.682C140.375 42.0406 140.452 42.3951 140.601 42.7214C140.733 43.0045 140.942 43.2447 141.204 43.4143C141.47 43.5675 141.771 43.6505 142.078 43.6553C142.34 43.6563 142.599 43.5944 142.832 43.4746C143.072 43.3396 143.27 43.1416 143.405 42.9021L143.857 43.2335C143.69 43.5463 143.439 43.8069 143.133 43.9867C142.822 44.1674 142.468 44.2611 142.108 44.2579C141.694 44.2509 141.289 44.1367 140.933 43.9265Z" fill="black"/>
    <path d="M149.404 39.1357V44.1972H148.832V43.2934C148.686 43.5942 148.456 43.8457 148.168 44.0164C147.795 44.2221 147.366 44.3038 146.943 44.2497C146.52 44.1955 146.126 44.0083 145.817 43.7152C145.452 43.2542 145.269 42.6751 145.304 42.0883V39.1659H145.907V42.028C145.877 42.4603 146.006 42.8888 146.269 43.2331C146.393 43.3728 146.547 43.483 146.719 43.556C146.891 43.6289 147.077 43.6627 147.264 43.6549C147.475 43.6689 147.686 43.6325 147.88 43.5487C148.074 43.4649 148.245 43.336 148.379 43.1729C148.671 42.7837 148.81 42.3016 148.771 41.8171V39.1659L149.404 39.1357Z" fill="black"/>
    <path d="M152.238 43.9264C151.884 43.6987 151.601 43.3747 151.424 42.9924C151.231 42.5773 151.13 42.1248 151.13 41.6668C151.13 41.2088 151.231 40.7564 151.424 40.3412C151.612 39.9739 151.893 39.6623 152.238 39.4374C152.499 39.2747 152.792 39.1688 153.097 39.1264C153.402 39.084 153.712 39.1062 154.007 39.1914C154.303 39.2766 154.578 39.423 154.813 39.6211C155.048 39.8192 155.239 40.0645 155.374 40.3412C155.567 40.7564 155.668 41.2088 155.668 41.6668C155.668 42.1248 155.567 42.5773 155.374 42.9924C155.188 43.3693 154.908 43.6913 154.56 43.9264C154.208 44.1336 153.807 44.2429 153.399 44.2429C152.991 44.2429 152.59 44.1336 152.238 43.9264ZM154.258 43.4142C154.521 43.2446 154.73 43.0044 154.861 42.7213C155.133 42.0653 155.133 41.3286 154.861 40.6726C154.73 40.3895 154.521 40.1493 154.258 39.9797C154.001 39.8171 153.703 39.7308 153.399 39.7308C153.095 39.7308 152.797 39.8171 152.54 39.9797C152.278 40.1493 152.068 40.3895 151.937 40.6726C151.788 40.9936 151.711 41.3431 151.711 41.6969C151.711 42.0508 151.788 42.4003 151.937 42.7213C152.068 43.0044 152.278 43.2446 152.54 43.4142C152.802 43.5623 153.098 43.6402 153.399 43.6402C153.7 43.6402 153.996 43.5623 154.258 43.4142Z" fill="black"/>
    <path d="M157.394 39.1357H157.997V41.3652H160.801V39.1357H161.403V44.1972H160.801V41.9678H157.997V44.1972H157.394V39.1357Z" fill="black"/>
    <path d="M167.614 39.1361V44.1975H167.041V43.2033C166.884 43.5312 166.632 43.8042 166.318 43.9866C166.016 44.1634 165.673 44.2569 165.323 44.2578C164.918 44.2506 164.523 44.1363 164.177 43.9264C163.831 43.7015 163.551 43.3898 163.363 43.0226C163.169 42.6021 163.069 42.1447 163.069 41.6819C163.069 41.219 163.169 40.7616 163.363 40.3412C163.542 39.9731 163.82 39.6624 164.167 39.4441C164.513 39.2258 164.913 39.1087 165.323 39.106C165.673 39.1068 166.016 39.2004 166.318 39.3771C166.617 39.5654 166.865 39.824 167.041 40.1303V39.1662L167.614 39.1361ZM166.227 43.4142C166.49 43.2446 166.699 43.0044 166.83 42.7213C166.979 42.4003 167.056 42.0508 167.056 41.6969C167.056 41.3431 166.979 40.9936 166.83 40.6726C166.699 40.3895 166.49 40.1493 166.227 39.9797C165.976 39.8173 165.683 39.7309 165.383 39.7309C165.084 39.7309 164.791 39.8173 164.539 39.9797C164.277 40.1493 164.068 40.3895 163.936 40.6726C163.787 40.9936 163.71 41.3431 163.71 41.6969C163.71 42.0508 163.787 42.4003 163.936 42.7213C164.068 43.0044 164.277 43.2446 164.539 43.4142C164.796 43.5623 165.087 43.6403 165.383 43.6403C165.679 43.6403 165.971 43.5623 166.227 43.4142Z" fill="black"/>
    <path d="M176.659 39.648C177.015 40.1123 177.187 40.6917 177.141 41.2749V44.1973H176.538V41.3352C176.564 40.9078 176.448 40.4838 176.206 40.13C176.09 39.997 175.946 39.8905 175.785 39.8177C175.624 39.745 175.449 39.7076 175.272 39.7083C175.065 39.6943 174.859 39.7309 174.669 39.8149C174.48 39.8989 174.315 40.0278 174.186 40.1903C173.908 40.5859 173.77 41.0631 173.795 41.546V44.1973H173.192V41.3352C173.218 40.9078 173.101 40.4838 172.86 40.13C172.737 39.9963 172.588 39.8898 172.422 39.8171C172.256 39.7445 172.077 39.7074 171.895 39.7083C171.689 39.6943 171.482 39.7309 171.293 39.8149C171.104 39.8989 170.938 40.0278 170.81 40.1903C170.518 40.5795 170.379 41.0615 170.418 41.546V44.1973H169.815V39.1358H170.388V40.0698C170.542 39.7753 170.771 39.5262 171.051 39.3467C171.339 39.1657 171.677 39.0812 172.016 39.1057C172.357 39.1035 172.691 39.1975 172.981 39.3768C173.254 39.5735 173.463 39.8458 173.584 40.1602C173.73 39.8347 173.971 39.5614 174.277 39.3768C174.595 39.1858 174.961 39.0915 175.332 39.1057C175.579 39.0948 175.826 39.1376 176.055 39.2312C176.284 39.3248 176.49 39.467 176.659 39.648Z" fill="black"/>
    <path d="M179.523 43.8055C179.35 43.6087 179.219 43.3794 179.136 43.1311C179.053 42.8827 179.021 42.6204 179.04 42.3594V39.1659H179.643V41.2748C179.783 41.0687 179.983 40.9108 180.216 40.8229C180.481 40.7026 180.769 40.641 181.06 40.6421C181.294 40.6275 181.527 40.6629 181.746 40.7461C181.964 40.8292 182.162 40.9582 182.327 41.1242C182.487 41.2975 182.61 41.5019 182.688 41.7248C182.766 41.9477 182.797 42.1843 182.779 42.4197C182.792 42.767 182.709 43.1112 182.538 43.4139C182.385 43.6921 182.168 43.9297 181.905 44.1068C181.611 44.2743 181.277 44.3577 180.94 44.3478C180.68 44.3549 180.42 44.3107 180.177 44.2177C179.934 44.1246 179.712 43.9846 179.523 43.8055ZM181.844 43.3838C182.06 43.0973 182.177 42.7482 182.176 42.3895C182.186 42.0478 182.067 41.7147 181.844 41.4556C181.617 41.2515 181.33 41.1266 181.025 41.0994C180.721 41.0723 180.416 41.1444 180.156 41.3049C179.947 41.4578 179.772 41.6528 179.643 41.8774V42.3594C179.629 42.5436 179.65 42.7288 179.707 42.9046C179.764 43.0804 179.855 43.2432 179.975 43.3838C180.097 43.5147 180.247 43.6156 180.415 43.6783C180.582 43.7411 180.762 43.764 180.94 43.7453C181.109 43.7682 181.281 43.7469 181.44 43.6835C181.598 43.6202 181.738 43.5169 181.844 43.3838ZM183.502 39.1357H184.105V44.1972H183.502V39.1357Z" fill="black"/>
    <path d="M193.029 39.1361V43.595C193.029 44.4687 192.848 45.1014 192.487 45.4931C192.266 45.7117 192.001 45.8811 191.71 45.9901C191.419 46.0992 191.109 46.1454 190.798 46.1258C190.397 46.1317 189.997 46.0601 189.623 45.9149C189.279 45.8011 188.968 45.6045 188.718 45.3424L189.02 44.8303C189.244 45.0517 189.511 45.2258 189.803 45.3424C190.111 45.4631 190.438 45.5244 190.768 45.5232C190.995 45.5407 191.222 45.5094 191.435 45.4315C191.649 45.3535 191.843 45.2307 192.004 45.0713C192.309 44.6774 192.45 44.1806 192.396 43.6854V43.0527C192.228 43.3568 191.977 43.6074 191.673 43.7758C191.369 43.9435 191.025 44.0267 190.678 44.0168C190.276 44.0205 189.88 43.9165 189.532 43.7155C189.188 43.502 188.907 43.2004 188.718 42.8418C188.516 42.4507 188.413 42.0165 188.417 41.5765C188.409 41.136 188.513 40.7008 188.718 40.3111C188.898 39.9462 189.181 39.6423 189.532 39.4374C189.879 39.2329 190.275 39.1286 190.678 39.1361C191.038 39.1346 191.393 39.2286 191.705 39.4085C192.018 39.5885 192.277 39.8479 192.457 40.1605V39.1964L193.029 39.1361ZM191.643 43.1732C191.91 43.0228 192.121 42.7904 192.246 42.5104C192.385 42.208 192.457 41.8792 192.457 41.5463C192.457 41.2135 192.385 40.8846 192.246 40.5823C192.14 40.3789 191.994 40.1994 191.817 40.0547C191.639 39.9101 191.434 39.8033 191.214 39.7412C190.993 39.6791 190.762 39.6628 190.535 39.6935C190.308 39.7241 190.09 39.8011 189.894 39.9194C189.627 40.0699 189.415 40.3023 189.291 40.5823C189.142 40.8819 189.065 41.2118 189.065 41.5463C189.065 41.8808 189.142 42.2108 189.291 42.5104C189.425 42.7866 189.635 43.0185 189.897 43.1788C190.159 43.339 190.461 43.4207 190.768 43.4143C191.075 43.4094 191.376 43.3265 191.643 43.1732Z" fill="black"/>
    <path d="M198.848 39.1357V44.1972H198.245V39.7383H196.105L196.044 41.0037C196.04 41.8181 195.928 42.6285 195.713 43.4139C195.532 43.9863 195.23 44.2575 194.808 44.2575C194.666 44.2544 194.524 44.2341 194.386 44.1972L194.446 43.5946C194.514 43.6194 194.586 43.6296 194.657 43.6248C194.773 43.6229 194.886 43.5878 194.982 43.5237C195.078 43.4596 195.154 43.3692 195.2 43.2632C195.326 42.976 195.407 42.6712 195.441 42.3594C195.471 41.9979 195.502 41.5158 195.532 40.9434L195.592 39.1357H198.848Z" fill="black"/>
    <path d="M204.426 39.1359V44.1973H203.883V42.5102H202.315L201.29 44.1973H200.627L201.742 42.4198C201.416 42.3228 201.13 42.1218 200.928 41.8473C200.721 41.5594 200.625 41.2064 200.657 40.8531C200.641 40.6127 200.678 40.3717 200.767 40.1476C200.856 39.9235 200.993 39.7219 201.17 39.5576C201.564 39.2487 202.055 39.0887 202.556 39.1057L204.426 39.1359ZM202.526 42.0281H203.883V39.7685H202.586C201.712 39.7685 201.29 40.1602 201.29 40.9134C201.29 41.6666 201.682 42.0281 202.526 42.0281Z" fill="black"/>
    <path d="M213.259 39.1357V44.1972H212.656V39.7383H209.852V44.1972H209.249V39.1357H213.259Z" fill="black"/>
    <path d="M216.093 43.9264C215.738 43.6987 215.456 43.3747 215.279 42.9924C215.086 42.5773 214.985 42.1248 214.985 41.6668C214.985 41.2088 215.086 40.7564 215.279 40.3412C215.467 39.9739 215.747 39.6623 216.093 39.4374C216.354 39.2747 216.647 39.1688 216.951 39.1264C217.256 39.084 217.567 39.1062 217.862 39.1914C218.158 39.2766 218.432 39.423 218.668 39.6211C218.903 39.8192 219.094 40.0645 219.229 40.3412C219.422 40.7564 219.522 41.2088 219.522 41.6668C219.522 42.1248 219.422 42.5773 219.229 42.9924C219.043 43.3693 218.763 43.6913 218.415 43.9264C218.063 44.1336 217.662 44.2429 217.254 44.2429C216.846 44.2429 216.445 44.1336 216.093 43.9264ZM218.113 43.4142C218.375 43.2446 218.584 43.0044 218.716 42.7213C218.987 42.0653 218.987 41.3286 218.716 40.6726C218.584 40.3895 218.375 40.1493 218.113 39.9797C217.856 39.8171 217.558 39.7308 217.254 39.7308C216.95 39.7308 216.652 39.8171 216.395 39.9797C216.132 40.1493 215.923 40.3895 215.792 40.6726C215.643 40.9936 215.565 41.3431 215.565 41.6969C215.565 42.0508 215.643 42.4003 215.792 42.7213C215.923 43.0044 216.132 43.2446 216.395 43.4142C216.657 43.5623 216.953 43.6402 217.254 43.6402C217.555 43.6402 217.851 43.5623 218.113 43.4142Z" fill="black"/>
    <path d="M224.987 41.9679H224.022V44.1973H223.419V41.9378H222.454L221.098 44.1973H220.374L221.972 41.6064L220.495 39.166H221.158L222.454 41.3955H223.419V39.166H224.022V41.3955H224.987L226.313 39.166H226.977L225.499 41.6365L227.097 44.2275H226.374L224.987 41.9679Z" fill="black"/>
    <path d="M232.373 39.1357V44.1972H231.8V43.2934C231.655 43.5942 231.424 43.8457 231.137 44.0164C230.764 44.2221 230.335 44.3038 229.912 44.2497C229.489 44.1955 229.095 44.0083 228.786 43.7152C228.421 43.2542 228.238 42.6751 228.273 42.0883V39.1659H228.876V42.028C228.846 42.4603 228.974 42.8888 229.238 43.2331C229.362 43.3728 229.516 43.483 229.688 43.556C229.86 43.6289 230.046 43.6627 230.233 43.6549C230.444 43.6689 230.655 43.6325 230.849 43.5487C231.043 43.4649 231.214 43.336 231.348 43.1729C231.653 42.7903 231.794 42.303 231.74 41.8171V39.1659L232.373 39.1357Z" fill="black"/>
    <path d="M238.162 39.1357V44.1972H237.559V39.7383H235.418L235.358 41.0037C235.354 41.8181 235.242 42.6285 235.026 43.4139C234.845 43.9863 234.544 44.2575 234.122 44.2575C233.979 44.2544 233.838 44.2341 233.7 44.1972L233.73 43.5946C233.797 43.6194 233.869 43.6296 233.941 43.6248C234.049 43.6253 234.156 43.5942 234.247 43.5354C234.338 43.4765 234.41 43.3924 234.454 43.2934C234.579 43.0061 234.661 42.7013 234.695 42.3895C234.725 42.028 234.755 41.546 234.785 40.9735L234.845 39.1659L238.162 39.1357Z" fill="black"/>
    <path d="M240.694 43.8055C240.522 43.6087 240.39 43.3794 240.307 43.1311C240.224 42.8827 240.192 42.6204 240.212 42.3594V39.1659H240.815V41.2748C240.955 41.0687 241.155 40.9108 241.388 40.8229C241.653 40.7026 241.941 40.641 242.232 40.6421C242.465 40.6275 242.699 40.6629 242.917 40.7461C243.136 40.8292 243.334 40.9582 243.498 41.1242C243.81 41.482 243.972 41.9458 243.95 42.4197C243.959 42.763 243.887 43.1037 243.739 43.4139C243.584 43.7072 243.348 43.9505 243.06 44.1158C242.772 44.281 242.443 44.3615 242.111 44.3478C241.587 44.3567 241.079 44.1624 240.694 43.8055ZM243.016 43.3838C243.232 43.0973 243.348 42.7482 243.347 42.3895C243.359 42.2194 243.336 42.0487 243.279 41.888C243.222 41.7272 243.132 41.58 243.016 41.4556C242.762 41.2195 242.428 41.09 242.081 41.094C241.814 41.0851 241.551 41.1587 241.327 41.3049C241.119 41.4503 240.953 41.6476 240.845 41.8774V42.3594C240.83 42.5436 240.852 42.7288 240.909 42.9046C240.966 43.0804 241.057 43.2432 241.177 43.3838C241.298 43.5147 241.449 43.6156 241.616 43.6783C241.784 43.7411 241.964 43.764 242.141 43.7453C242.306 43.7716 242.475 43.7517 242.63 43.6879C242.784 43.6241 242.918 43.5188 243.016 43.3838ZM244.674 39.1357H245.277V44.1972H244.674V39.1357Z" fill="black"/>
    <path d="M250.221 44.1972L248.804 42.0883L247.387 44.1972H246.694L248.473 41.6062L246.784 39.1357H247.448L248.804 41.1242L250.161 39.1357H250.824L249.136 41.6062L250.915 44.1972H250.221Z" fill="black"/>
    <path d="M39.1208 35.2794C36.6008 34.6046 33.9725 34.4326 31.3859 34.773C28.7993 35.1134 26.3052 35.9596 24.0459 37.2633C21.7866 38.567 19.8065 40.3027 18.2185 42.3712C16.6305 44.4397 15.4658 46.8006 14.7909 49.3189C17.3109 49.9957 19.9398 50.1693 22.527 49.8298C25.1143 49.4903 27.6092 48.6444 29.8689 47.3404C32.1287 46.0364 34.109 44.3 35.6965 42.2304C37.2841 40.1608 38.4477 37.7988 39.1208 35.2794Z" fill="#AEDCD2"/>
    <path d="M14.7306 49.3189C15.4058 46.8007 15.578 44.1742 15.2374 41.5894C14.8967 39.0046 14.0499 36.5122 12.7453 34.2545C11.4407 31.9967 9.70383 30.018 7.63389 28.4311C5.56394 26.8442 3.20147 25.6803 0.68137 25.0059C0.00616485 27.5241 -0.166035 30.1506 0.174604 32.7354C0.515243 35.3202 1.36205 37.8126 2.66666 40.0703C3.97128 42.3281 5.70815 44.3069 7.7781 45.8937C9.84804 47.4806 12.2105 48.6445 14.7306 49.3189Z" fill="#DC7E51"/>
    <path d="M25.1017 10.8462C24.4265 13.3645 24.2543 15.991 24.595 18.5758C24.9356 21.1605 25.7824 23.653 27.087 25.9107C28.3916 28.1684 30.1285 30.1472 32.1984 31.7341C34.2684 33.321 36.6309 34.4848 39.151 35.1593C39.8295 32.641 40.0041 30.0136 39.6649 27.4278C39.3258 24.8419 38.4794 22.3483 37.1743 20.0898C35.8693 17.8313 34.1312 15.8523 32.0595 14.2661C29.9879 12.68 27.6235 11.5178 25.1017 10.8462Z" fill="#8E7159"/>
    <path d="M0.711517 24.8555C3.23153 25.5302 5.85987 25.7023 8.44643 25.3619C11.033 25.0215 13.5271 24.1753 15.7864 22.8716C18.0457 21.5679 20.0259 19.8322 21.6139 17.7637C23.2018 15.6952 24.3665 13.3343 25.0414 10.816C19.9524 9.46243 14.5339 10.1801 9.97338 12.8117C5.41288 15.4434 2.08231 19.7743 0.711517 24.8555Z" fill="#00B3B5"/>
    <path d="M34.9 4.97125C33.8904 4.69886 32.8368 4.62867 31.7999 4.76472C30.7631 4.90077 29.7633 5.24037 28.8583 5.76398C27.9532 6.28759 27.1607 6.98487 26.5264 7.81571C25.892 8.64655 25.4284 9.59454 25.162 10.6051C27.2009 11.1452 29.3708 10.8555 31.1962 9.79941C33.0216 8.74333 34.3535 7.00708 34.9 4.97125Z" fill="#00B3B5"/>
    <path d="M25.1319 10.575C25.4041 9.56809 25.475 8.51739 25.3404 7.48306C25.2059 6.44873 24.8685 5.45108 24.3476 4.5472C23.8268 3.64332 23.1327 2.85096 22.305 2.21548C21.4773 1.57999 20.5324 1.11386 19.5242 0.84375C19.2487 1.85071 19.1753 2.90222 19.3084 3.93765C19.4415 4.97308 19.7784 5.97193 20.2997 6.87659C20.821 7.78125 21.5164 8.57382 22.3458 9.20859C23.1751 9.84335 24.122 10.3078 25.1319 10.575Z" fill="#00B3B5"/>
    <path d="M28.0563 0C26.2345 1.05562 24.9045 2.78854 24.3566 4.82053C23.8087 6.85252 24.0874 9.0186 25.1319 10.846C26.0405 10.3296 26.8377 9.63832 27.4773 8.81212C28.1169 7.98593 28.5862 7.04122 28.8582 6.03262C29.1301 5.02402 29.1993 3.97155 29.0616 2.93608C28.924 1.90061 28.5823 0.902676 28.0563 0Z" fill="#DD7C5A"/>
  </symbol>

  <symbol id="eye" viewBox="0 0 24 24">
    <path d="M12 19.5C17 19.5 21 15.34 21 12.5C21 9.66 17 5.5 12 5.5C7 5.5 3 9.66 3 12.5C3 15.34 7 19.5 12 19.5Z"  stroke-width="2" stroke-linejoin="round"/>
    <path d="M12 15.5C12.5933 15.5 13.1734 15.3241 13.6667 14.9944C14.1601 14.6648 14.5446 14.1962 14.7716 13.6481C14.9987 13.0999 15.0581 12.4967 14.9424 11.9147C14.8266 11.3328 14.5409 10.7982 14.1213 10.3787C13.7018 9.95912 13.1672 9.6734 12.5853 9.55765C12.0033 9.44189 11.4001 9.5013 10.8519 9.72836C10.3038 9.95543 9.83524 10.3399 9.50559 10.8333C9.17595 11.3266 9 11.9067 9 12.5C9 13.2957 9.31607 14.0587 9.87868 14.6213C10.4413 15.1839 11.2044 15.5 12 15.5Z"  stroke-width="2" stroke-linejoin="round"/>
    <path d="M6.63 4.62988L7.93 6.43988"  stroke-width="2" stroke-miterlimit="2" stroke-linecap="round"/>
    <path d="M17.81 4.85986L16.52 6.66986"  stroke-width="2" stroke-miterlimit="2" stroke-linecap="round"/>
    <path d="M12 2.5V5.5"  stroke-width="2" stroke-miterlimit="2" stroke-linecap="round"/>
  </symbol>
  
  <symbol id="chevron" viewBox="0 0 24 24">
    <path d="M12 15.9999C11.8684 16.0007 11.7379 15.9755 11.6161 15.9257C11.4943 15.8759 11.3834 15.8026 11.29 15.7099L6.29 10.7099C6.1017 10.5216 5.99591 10.2662 5.99591 9.99994C5.99591 9.73364 6.1017 9.47824 6.29 9.28994C6.47831 9.10164 6.7337 8.99585 7 8.99585C7.2663 8.99585 7.5217 9.10164 7.71 9.28994L12 13.5899L16.29 9.28994C16.4783 9.10164 16.7337 8.99585 17 8.99585C17.2663 8.99585 17.5217 9.10164 17.71 9.28994C17.8983 9.47824 18.0041 9.73364 18.0041 9.99994C18.0041 10.2662 17.8983 10.5216 17.71 10.7099L12.71 15.7099C12.6166 15.8026 12.5057 15.8759 12.3839 15.9257C12.2621 15.9755 12.1316 16.0007 12 15.9999Z"/>
  </symbol>

</svg>

